<svg xmlns="http://www.w3.org/2000/svg" width="200" height="200" viewBox="0 0 200 200">
  <path fill="#2E41D1" d="M86.1,115.5 L86.1,156 L64.2,156 L64.2,120 C64.2,109.05 63.75,101.4 52.95,101.4 C43.8,101.4 39.9,108.6 39.9,118.35 L39.9,156 L18,156 L18,54 L39.9,54 L39.9,93 C43.35,87.45 50.85,82.8 61.05,82.8 C69.3,82.8 75.6,85.05 79.8,89.7 C84.3,94.8 86.1,99.75 86.1,115.5 Z M108.339258,135.125977 C112.831468,128.045863 121.449546,120.550821 134.19375,112.640625 C145.27779,105.755825 152.553108,100.824234 156.019922,97.8457031 C161.342214,93.2070081 164.589252,88.1289338 165.761133,82.6113281 C166.7377,78.1191182 166.298251,74.383804 164.442773,71.4052734 C162.587295,68.4267429 159.340258,66.9375 154.701562,66.9375 C148.353875,66.9375 143.519938,69.3056404 140.199609,74.0419922 C138.295303,76.7763809 136.61075,81.1220405 135.145898,87.0791016 L114.857812,87.0791016 C117.103917,78.0458533 120.277714,70.7461216 124.379297,65.1796875 C132.191836,54.5839314 143.202468,49.2861328 157.411523,49.2861328 C168.642048,49.2861328 176.918333,52.3988947 182.240625,58.6245117 C187.562917,64.8501288 189.125402,73.0897925 186.928125,83.34375 C185.26796,91.2051174 181.459405,98.1874695 175.502344,104.291016 C171.547246,108.34377 165.517033,112.860327 157.411523,117.84082 L147.816797,123.773438 C141.810907,127.484394 137.660558,130.169914 135.365625,131.830078 C133.070692,133.490243 131.044345,135.418934 129.286523,137.616211 L175.648828,137.616211 L171.766992,156 L99.0375,156 C100.84415,148.382774 103.944705,141.424836 108.339258,135.125977 Z"/>
</svg>
